<svg width="39" height="40" viewBox="0 0 39 40" fill="none" xmlns="http://www.w3.org/2000/svg">
<g id="pajamas:long-arrow">
<path id="Vector" fill-rule="evenodd" clip-rule="evenodd" d="M24.7626 27.0909C24.583 27.2583 24.4389 27.4601 24.339 27.6844C24.2391 27.9086 24.1853 28.1507 24.181 28.3962C24.1767 28.6416 24.2218 28.8854 24.3138 29.1131C24.4057 29.3407 24.5426 29.5475 24.7162 29.7211C24.8898 29.8947 25.0965 30.0315 25.3242 30.1235C25.5518 30.2154 25.7956 30.2606 26.0411 30.2562C26.2865 30.2519 26.5286 30.1982 26.7529 30.0983C26.9771 29.9984 27.1789 29.8543 27.3463 29.6747L35.2682 21.7528L36.5625 20.4609L35.2706 19.1691L27.3488 11.2472C27.0041 10.914 26.5424 10.7295 26.0631 10.7335C25.5838 10.7374 25.1251 10.9294 24.786 11.2682C24.4469 11.607 24.2544 12.0655 24.2501 12.5448C24.2457 13.0241 24.4297 13.486 24.7626 13.8309L29.5644 18.6328H4.26562C3.78078 18.6328 3.31579 18.8254 2.97295 19.1683C2.63011 19.5111 2.4375 19.9761 2.4375 20.4609C2.4375 20.9458 2.63011 21.4108 2.97295 21.7536C3.31579 22.0964 3.78078 22.2891 4.26562 22.2891H29.5644L24.7626 27.0909Z" fill="white"/>
</g>
</svg>
